{"title":"The.Amazing.Spider.Man.2.2014.Bluray1080.DTS.X264.H3LL2P4Y","uid":10800982,"size":15214655667,"categoryP":"video","categoryS":"hd___movies","magnet":"?xt=urn:btih:f74a2b96f6fc7961a916129b82f57df9d2cd82cd&amp;dn=The.Amazing.Spider.Man.2.2014.Bluray1080.DTS.X264.H3LL2P4Y&amp;tr=udp%3A%2F%2Ftracker.openbittorrent.com%3A80&amp;tr=udp%3A%2F%2Fopen.demonii.com%3A1337&amp;tr=udp%3A%2F%2Ftracker.coppersurfer.tk%3A6969&amp;tr=udp%3A%2F%2Fexodus.desync.com%3A6969","seeders":1,"leechers":1,"uploader":"inovai","files":3,"time":1408347712,"description":"Cover: \n &lt;a href=&quot;\nhttp://forum.primetimeshow.in/viewtopic.php?f=7&amp;t=409&amp;p=1507#p1507&quot; rel=&quot;nofollow&quot; target=&quot;_NEW&quot;&gt;\nhttp://forum.primetimeshow.in/viewtopic.php?f=7&amp;t=409&amp;p=1507#p1507&lt;/a&gt;\n\nPlot\nPeter Parker runs the gauntlet as the mysterious company Oscorp sends up a slew of super villains against him, impacting his life.\n\nScreenshots:\n &lt;a href=&quot;\nhttp://img.primetimeshow.in/share.php?id=6C9E_53F19123&quot; rel=&quot;nofollow&quot; target=&quot;_NEW&quot;&gt;\nhttp://img.primetimeshow.in/share.php?id=6C9E_53F19123&lt;/a&gt;\n &lt;a href=&quot;\nhttp://img.primetimeshow.in/share.php?id=3CA4_53F19123&quot; rel=&quot;nofollow&quot; target=&quot;_NEW&quot;&gt;\nhttp://img.primetimeshow.in/share.php?id=3CA4_53F19123&lt;/a&gt;\n &lt;a href=&quot;\nhttp://img.primetimeshow.in/share.php?id=BB42_53F19123&quot; rel=&quot;nofollow&quot; target=&quot;_NEW&quot;&gt;\nhttp://img.primetimeshow.in/share.php?id=BB42_53F19123&lt;/a&gt;\n &lt;a href=&quot;\nhttp://img.primetimeshow.in/share.php?id=F71B_53F19123&quot; rel=&quot;nofollow&quot; target=&quot;_NEW&quot;&gt;\nhttp://img.primetimeshow.in/share.php?id=F71B_53F19123&lt;/a&gt;\n\nSource\nThe.Amazing.Spider-Man.2.2014.COMPLETE.BLURAY.BAKED;)\n\nGeneral\nComplete name : E:The.Amazing.Spider-Man.2.2014.Bluray.1080.DTS.X264.H3LL2P4Y.mkv\nFile size : 14.3 GiB\nDuration : 2h 21mn\nOverall bit rate : 14.5 Mbps\nEncoded date : UTC 2014-08-04 08:36:27\nWriting application : mkvmerge v7.0.0 ('Where We Going') 32bit built on Jun 9 2014 15:08:34\nWriting library : libebml v1.3.0 + libmatroska v1.4.1\nDURATION : 02:21:34.752000000\nNUMBER_OF_FRAMES : 796383\nNUMBER_OF_BYTES : 1602322596\n\n\nVideo\nID : 1\nFormat : AVC\nFormat/Info : Advanced Video Codec\nFormat profile : &lt;a class=&quot;__cf_email__&quot; href=&quot;/cdn-cgi/l/email-protection&quot; data-cfemail=&quot;86ceefe1eec6cab2a8b7&quot;&gt;[email&amp;#160;protected]&lt;/a&gt;&lt;script cf-hash='f9e31' type=&quot;text/javascript&quot;&gt;\n/* &lt;![CDATA[ */!function(){try{var t=&quot;currentScript&quot;in document?document.currentScript:function(){for(var t=document.getElementsByTagName(&quot;script&quot;),e=t.length;e--;)if(t[e].getAttribute(&quot;cf-hash&quot;))return t[e]}();if(t&amp;&amp;t.previousSibling){var e,r,n,i,c=t.previousSibling,a=c.getAttribute(&quot;data-cfemail&quot;);if(a){for(e=&quot;&quot;,r=parseInt(a.substr(0,2),16),n=2;a.length-n;n+=2)i=parseInt(a.substr(n,2),16)^r,e+=String.fromCharCode(i);e=document.createTextNode(e),c.parentNode.replaceChild(e,c)}}}catch(u){}}();/* ]]&gt; */&lt;/script&gt;\nFormat settings, CABAC : Yes\nFormat settings, ReFrames : 5 frames\nCodec ID : V_MPEG4/ISO/AVC\nDuration : 2h 21mn\nBit rate : 13.0 Mbps\nWidth : 1 920 pixels\nHeight : 800 pixels\nDisplay aspect ratio : 2.40:1\nFrame rate mode : Constant\nFrame rate : 23.976 fps\nColor space : YUV\nChroma subsampling : 4:2:0\nBit depth : 8 bits\nScan type : Progressive\nBits/(Pixel*Frame) : 0.353\nStream size : 12.6 GiB (88%)\nWriting library : x264 core 142 r2431 ac76440\nDURATION : 02:21:34.737000000\nNUMBER_OF_FRAMES : 203670\nNUMBER_OF_BYTES : 13802795916\n\n\nAudio\nID : 2\nFormat : DTS\nFormat/Info : Digital Theater Systems\nMode : 16\nFormat settings, Endianness : Big\nCodec ID : A_DTS\nDuration : 2h 21mn\nBit rate mode : Constant\nBit rate : 1 509 Kbps\nChannel(s) : 6 channels\nChannel positions : Front: L C R, Side: L R, LFE\nSampling rate : 48.0 KHz\nBit depth : 24 bits\nCompression mode : Lossy\nStream size : 1.49 GiB (10%)\nDefault : Yes\nForced : No\n\nTHanks to H3LL2P4Y for encoding &amp; Baked for source!!\n\nSeed N ENjoy!!\n\nSharing is Caring!!\n\n","torrent":{"xt":"urn:btih:f74a2b96f6fc7961a916129b82f57df9d2cd82cd","amp;dn":"The.Amazing.Spider.Man.2.2014.Bluray1080.DTS.X264.H3LL2P4Y","amp;tr":["udp%3A%2F%2Ftracker.openbittorrent.com%3A80","udp%3A%2F%2Fopen.demonii.com%3A1337","udp%3A%2F%2Ftracker.coppersurfer.tk%3A6969","udp%3A%2F%2Fexodus.desync.com%3A6969"],"infoHash":"f74a2b96f6fc7961a916129b82f57df9d2cd82cd","infoHashBuffer":{"type":"Buffer","data":[247,74,43,150,246,252,121,97,169,22,18,155,130,245,125,249,210,205,130,205]},"announce":[],"urlList":[]}}